<?xml version="1.0" encoding="utf-8"?>
<!-- Generator: Adobe Illustrator 28.0.0, SVG Export Plug-In . SVG Version: 6.00 Build 0)  -->
<svg version="1.1" xmlns="http://www.w3.org/2000/svg" xmlns:xlink="http://www.w3.org/1999/xlink" x="0px" y="0px"
	 viewBox="0 0 544.9 324.43" style="enable-background:new 0 0 544.9 324.43;" xml:space="preserve">
<style type="text/css">
	.st0{fill:#072F1F;}
	.st1{fill:#EC2440;}
	.st2{fill:#FDFDFD;}
	.st3{display:none;}
	.st4{display:inline;fill:none;stroke:#E91385;stroke-width:0.25;stroke-miterlimit:10;}
</style>
<g id="Слой_1">
	<path class="st0" d="M177.25,186.82c0.9-0.03,1.08-0.69,1.41-1.21c5.89-9.02,11.78-18.04,17.68-27.06
		c0.38-0.58,0.92-1.09,1.39-1.62c4.01,1.6,7.44,0.31,10.47-1.82c2.9-2.04,5.08-4.71,7.46-7.19c4.37-4.58,8.83-9.07,12.89-13.86
		c1.98-2.34,4.04-4.67,6.57-6.6c1.78-1.36,3.52-0.94,4.69,0.82c1.65,2.49-0.01,4.89-0.76,7c-1.51,4.27-2.74,8.6-3.91,12.91
		c-1.92,7.05-4.13,14.03-5.87,21.12c-0.86,3.5-2.35,6.89-2.47,10.51c-0.09,2.45,2.12,4.76,5.03,5.43c3.08,0.71,5.93-0.02,7.36-2.12
		c1.2-1.76,2.44-3.58,3.14-5.51c2.75-7.68,5.3-15.41,7.92-23.12c2.44-7.19,4.92-14.38,7.26-21.6c0.55-1.69,1.39-2.85,3.53-2.98
		c2.37-0.14,3.53,1.09,4.3,2.82c2.7,6,4.42,12.27,6.59,18.41c2.87,8.16,5.28,16.43,8.31,24.55c0.96,2.57,4.57,4.32,8.09,3.84
		c3.72-0.51,6.2-3.03,5.79-6.07c-0.82-5.97-1.79-11.93-2.69-17.9c-0.37-2.48-0.82-4.96-1.03-7.45c-0.14-1.7,1.15-2.76,2.87-3.38
		c1.6-0.58,2.57,0.32,3.69,1.15c1.94,1.42,2.94,3.39,4.07,5.19c3.45,5.46,7.87,10.38,11.44,15.76c2.98,4.5,6.29,8.83,9.32,13.31
		c4.52,6.68,9.25,13.27,14.01,19.83c1.86,2.56,5.95,3.32,9.01,1.95c3.66-1.64,5.2-4.63,3.75-7.6c-0.72-1.49-1.64-2.93-2.6-4.33
		c-5.14-7.54-10.4-15.03-15.46-22.61c-3.69-5.52-7.22-11.13-10.67-16.76c-1.35-2.21-3.2-4.14-4.5-6.36
		c-1.3-2.23,0.07-4.23,2.77-4.57c2.89-0.37,4.29,1.51,5.82,2.8c6.21,5.2,12.32,10.48,18.86,15.4c3.43,2.58,6.81,4.26,11.43,2.92
		c3.78,3.66,6.47,7.98,9.6,12.03c3.79,4.9,7.37,9.92,11.04,14.88c-0.18,2.42-2.37,4.04-3.53,6.05c-2.77,4.8-6.21,9.34-9.68,13.8
		c-2.78,3.57-4.5,7.67-7.89,10.96c-2.28,2.21-1.59,5.87,0.75,7.3c2.24,1.37,6.02,1.04,8.67-0.49c1.82-1.05,2.6-2.89,4.31-3.91
		c2.22-1.33,4.06-2.98,5.96-4.59c3.7-3.13,7.66-5.97,11.76-8.7c1.64-1.09,3.43-1.15,5.1-0.5c1.83,0.71,2.48,2.19,2.01,3.91
		c-0.74,2.69-1.48,5.37-2.29,8.04c-1.16,3.85-2.44,7.68-3.56,11.54c-0.73,2.52,0.56,5.16,2.82,6.14c2.76,1.19,6.25,0.82,8.01-1.08
		c1.06-1.15,1.89-2.51,2.57-3.87c3.03-6.05,5.9-12.16,8.97-18.2c0.75-1.47,1.34-3.41,3.78-3.48c2.38-0.06,2.97,1.94,4.23,3.15
		c0.05,0.05,0.08,0.12,0.11,0.18c4.49,8.15,10.25,15.68,15.34,23.54c0.6,0.92,1.45,1.78,2.37,2.49c2.41,1.88,5.15,1.88,7.88,0.61
		c2.24-1.04,3.36-2.63,3.07-4.97c-0.49-3.96-3.02-7.3-4.28-11.02c-0.86-2.52-2.92-4.67-3.33-7.31c-0.17-1.12-0.67-2.21-1.34-2.9
		c-1.11-1.16-1.61-2.45-2.14-3.76c-0.5-1.23-0.74-2.54,0.71-3.53c1.36-0.94,2.78-0.78,4.19-0.13c2.91,1.34,5.26,3.31,7.84,5.04
		c4.63,3.11,9.57,5.87,14.33,8.84c4.63,2.89,9.38,5.21,15.36,3.13c6.38,7.19,11.5,15.09,17.29,22.61c2.76,3.58,2.68,3.58,5.85,0.18
		c2.42-2.59,4.9-5.15,7.46-7.63c2.11-2.04,1.3-4.36,1-6.59c-0.16-1.13-1.21-0.52-1.77-0.08c-2.04,1.6-4.02,3.25-6.05,4.87
		c-1.52,1.21-3.31,1.64-5.23,0.86c-1.98-0.8-2.85-2.35-2.94-4.13c-0.08-1.76,1.4-2.98,2.59-4.22c4.08-4.23,8.17-8.45,12.36-12.61
		c2.06-2.04,1.42-4.35,1.1-6.58c-0.16-1.13-1.26-0.55-1.8-0.14c-1.49,1.11-2.87,2.32-4.32,3.47c-0.87,0.69-1.72,1.42-2.69,1.98
		c-2.31,1.32-4.58,1.12-6.2-0.46c-1.59-1.55-1.61-3.56,0.05-5.37c4.12-4.46,8.27-8.9,12.42-13.34c1.65-1.76,2.96-3.65,3.64-5.87
		c0.58-1.9,2.11-2.98,4.49-2.98c2.36-0.01,4.06,0.97,4.68,3.03c0.72,2.4,2.42,4.23,4.16,6.07c4.22,4.48,8.46,8.94,12.63,13.45
		c2.64,2.85,1.45,6.17-2.35,6.71c-1.59,0.22-2.98-0.27-4.15-1.15c-2.37-1.79-4.67-3.65-7.04-5.44c-0.56-0.42-1.15-1.09-2.05-0.71
		c-0.75,0.32-0.51,1.07-0.65,1.64c-0.57,2.24,0.24,3.92,2.05,5.68c4.87,4.72,9.45,9.65,14.1,14.53c2.24,2.35,2.23,4.37,0.11,6.16
		c-1.85,1.56-4.51,1.4-6.99-0.52c-2.46-1.9-4.6-4.1-7.19-5.9c-1.32-0.91-1.69-0.68-2.08,0.7c-0.87,3.11,0.01,5.37,2.74,7.77
		c5.06,4.45,9.55,9.39,14.21,14.18c1.86,1.91,1.7,4.37-0.18,5.89c-1.8,1.45-4.52,1.49-6.67-0.12c-1.9-1.42-3.59-3.06-5.4-4.57
		c-1.02-0.85-2.09-1.66-3.18-2.44c-0.77-0.55-1.33-0.37-1.41,0.51c-0.28,3.11-0.75,5.88,2.4,8.72c5.59,5.04,10.4,10.73,15.35,16.27
		c2.78,3.11,1.02,6.5-3.27,6.86c-1.48,0.13-2.59-0.46-3.67-1.17c-2.66-1.76-4.5-4.16-6.73-6.26c-1.15-1.08-2.32-2.14-3.95-3.63
		c-0.24,3.15-0.96,5.76-0.45,8.19c0.38,1.85,2.31,3.47,3.57,5.18c6.84,9.28,13.69,18.55,20.51,27.84c1.32,1.79,2.65,3.59,1.06,5.83
		c-1.63,2.29-4,2.98-7.02,2.97c-51.7-0.06-103.39-0.07-155.09-0.09c-3.39,0-6.79,0.31-10.17-0.03c-5.02-0.07-10.05-0.14-15.07-0.21
		c-1.37-0.02-2.76,0.01-3.93-0.74c0.24-0.46,0.66-0.44,1.05-0.46c4.88-0.31,9.61-1.33,14.32-2.33c9.75-2.07,19.51-4.13,29.05-6.85
		c5.12-1.46,10.32-2.82,15.05-5.17c6.47-3.21,6.16-9.23,0.78-12.02c-1.41-0.73-2.89-1.37-4.4-1.91c-9.89-3.57-20.42-4.96-30.9-6.3
		c-9.26-1.18-18.49-2.58-27.8-3.56c-8.91-0.94-17.74-2.43-26.63-3.51c-12.4-1.49-24.71-3.41-37.01-5.39
		c-1.28-0.21-2.41-0.74-2.6-2.02c-0.18-1.27,0.34-2.16,1.8-2.75c3.47-1.39,7.23-1.81,10.9-2.47c7.7-1.38,15.5-2.39,23.2-3.82
		c6.02-1.12,12.13-1.66,18.16-2.69c5.56-0.95,11.18-1.62,16.74-2.56c1.47-0.25,3.27-0.45,3.94-1.93c1.9-4.15,1.21-9.16-6.05-9.38
		c-2.25-0.07-4.37,0.5-6.55,0.76c-9.75,1.18-19.51,2.21-29.22,3.63c-7.37,1.07-14.75,2.2-22.18,2.83
		c-6.12,0.52-12.15,1.49-18.25,2.1c-9.76,0.97-19.45,2.45-29.16,3.78c-7.66,1.05-15.48,1.46-22.79,3.99
		c-3.25,1.13-6.49,2.31-7.14,5.75c-0.59,3.14,1.73,5.87,6.19,7.15c5.83,1.68,11.74,3.12,17.77,4.18c8.22,1.44,16.49,2.67,24.67,4.24
		c5.67,1.09,11.4,2.07,17.1,2.89c6.05,0.87,12,2.1,18.06,2.9c8.01,1.06,15.97,2.49,23.9,3.95c4.52,0.83,9.14,1.42,13.42,3.08
		c1.37,0.53,2.17,1.42,2.07,2.69c-0.09,1.16-0.93,1.86-2.23,2.37c-5.79,2.29-12.11,2.66-18.2,3.87c-4.2,0.83-8.44,1.52-12.72,2.04
		c-4.35,0.53-8.64,1.36-12.97,2.02c-4.49,0.7-8.99,1.34-13.48,2.04c-6.09,0.95-12.17,1.92-18.26,2.88
		c-5.33,0.85-10.76,1.41-15.97,2.64c-4.24,1-8.58,1.39-12.85,2.05c-2.5,0.38-4.9,0.41-6.8,2.04c-3.24,0.32-6.49,0.22-9.73,0.18
		c-2.64-0.24-5.29-0.25-7.94,0c-5.59-0.01-11.18-0.01-16.75-0.02c-0.56-0.36-1.2-0.14-1.8-0.14c-15.75-0.01-31.5-0.01-47.24,0.01
		c-0.99,0-2.01-0.23-2.98,0.15c-3.68,0.02-7.35,0.04-11.02,0.06c-0.45-0.4-1.04-0.2-1.56-0.2c-40.28,0-80.57,0-120.85,0.01
		c-0.45,0-0.95-0.16-1.33,0.19c-5.36-0.77-7.27-3.95-4.77-8.14c6.81-11.42,14.6-22.35,22.49-33.22c0.95-1.31,1.23-2.51,0.92-4.01
		c-0.38-1.85-0.44-3.75-0.66-5.8c-1.57,0.43-2.23,1.56-3.13,2.4c-2.23,2.1-4.05,4.52-6.5,6.46c-2.16,1.71-4.49,1.98-6.41,0.75
		c-2.01-1.29-2.43-3.43-1.15-5.68c1.06-1.86,2.79-3.28,4.24-4.88c3.88-4.28,7.6-8.67,11.94-12.63c1.66-1.51,2.29-5.83,1.27-7.66
		c-0.51-0.91-1.15-0.53-1.68-0.1c-1.6,1.31-3.14,2.67-4.72,4c-1.18,0.99-2.31,2.06-3.62,2.92c-2.14,1.41-4.46,1.36-6.04,0.05
		c-1.64-1.36-2.07-3.67-0.62-5.42c1.78-2.15,3.85-4.12,5.81-6.16c3.47-3.6,6.97-7.19,10.44-10.8c1.04-1.08,1.33-5.4,0.5-6.64
		c-0.67-1-1.33-0.39-1.88,0.06c-1.95,1.59-3.85,3.22-5.79,4.81c-0.91,0.75-1.79,1.56-2.82,2.17c-1.77,1.06-3.69,1.27-5.5,0.07
		c-1.72-1.14-1.89-2.72-1.39-4.41c0.3-1.03,1.06-1.81,1.82-2.59c4.73-4.82,9.38-9.71,14.25-14.43c1.99-1.93,2.2-3.92,1.61-6.2
		c-0.35-1.38-1.06-1.79-2.37-0.71c-1.65,1.37-3.29,2.74-4.92,4.12c-1.19,1-2.37,2.01-3.86,2.67c-1.79,0.8-3.52,0.74-5.02-0.51
		c-1.55-1.29-1.83-2.79-0.77-4.44c1.5-2.34,3.68-4.24,5.57-6.32c2.87-3.15,5.84-6.23,8.77-9.34c1.45-1.54,2.73-3.11,3.3-5.1
		c0.56-1.95,2.23-2.97,4.57-2.85c2.22,0.11,3.97,0.92,4.41,3.03c0.43,2.08,1.78,3.75,3.25,5.36c4.21,4.58,8.41,9.16,12.65,13.72
		c2.23,2.4,2.42,3.87,0.53,5.57c-2.03,1.83-4.44,1.99-6.95,0.16c-2.28-1.66-4.33-3.56-6.44-5.39c-1.14-0.98-1.7-1.01-2.07,0.53
		c-0.51,2.17-0.35,4.02,1.49,5.83c4.3,4.24,8.4,8.64,12.56,12.99c0.7,0.73,1.4,1.48,1.97,2.29c1.4,2,1.06,3.76-0.94,5.26
		c-1.94,1.46-4.26,1.63-6.25,0.14c-2.14-1.6-4.02-3.45-6.06-5.15c-0.65-0.54-1.25-1.51-2.27-1.24c-1,0.27-0.47,1.31-0.67,2
		c-0.61,2.13,0.04,3.9,1.78,5.58c2.93,2.84,5.7,5.81,8.41,8.8c1.28,1.42,2,1.31,3.01-0.19c5.1-7.56,10.26-15.1,15.44-22.62
		c0.75-1.09,1.71-2.08,2.56-3.12c4.49,0,7.99-2.03,10.84-4.59c2.4-2.16,4.09-4.92,6.04-7.44c2.5-3.23,4.85-6.55,7.45-9.72
		c2.46-3,5.17-5.86,7.75-8.79c2.22-2.52,4.24-5.18,6.68-7.53c1.62-1.57,2.84-2.2,5.52-0.91c2.15,1.04,2.33,2.45,1.75,4.29
		c-2.2,6.9-4.04,13.89-6.53,20.7c-3.67,10-6.52,20.18-9.87,30.25c-0.63,1.89-0.77,3.69,1.38,5.15c2.18,1.48,4.39,1.91,7.03,1.09
		c1.99-0.61,2.97-1.9,3.72-3.43c1.04-2.13,1.54-4.38,2.23-6.59c0.83-2.67,2.28-5.19,3.27-7.83c2.13-5.66,3.95-11.4,6.24-17.01
		c2.9-7.12,5.36-14.37,8.15-21.52c0.56-1.44,1.73-2.45,3.53-2.61c1.78-0.16,3.08,0.71,3.73,2.04c0.57,1.17,1.05,2.38,1.35,3.66
		c1.2,5.16,2.34,10.35,3.96,15.42c1.68,5.26,3.04,10.59,4.74,15.85c1.58,4.89,2.51,9.95,4.36,14.8c1.05,2.77,4.77,4.33,8.66,3.56
		c3.18-0.63,4.99-3.09,4.52-5.99c-0.8-4.95-2.32-9.78-3.54-14.66c-2.15-8.58-4.29-17.17-6.41-25.75c-0.46-1.85-0.88-3.71-1.15-5.58
		c-0.22-1.51,0.96-2.35,2.39-2.94c1.4-0.58,2.74-0.56,3.93,0.43c1.18,0.99,2.35,1.96,3.15,3.26c1.28,2.08,2.71,4.1,4.13,6.12
		c3.83,5.44,7.74,10.85,11.53,16.31c3.16,4.55,6.27,9.14,9.54,13.61c3.24,4.44,6.35,8.96,9.73,13.32c2.52,3.24,4.28,6.92,7.51,9.75
		c1.51,1.32,3.16,2.37,5.61,1.82c4.92-1.1,6.82-4.74,4.31-8.66c-1.62-2.54-3.43-4.99-5.12-7.5c-2.94-4.36-5.76-8.79-8.82-13.09
		c-2.08-2.92-4-5.92-6.13-8.82c-2.92-3.97-5.23-8.27-8.17-12.22C182.31,194.64,179.68,190.78,177.25,186.82z M34.85,251.91
		c-0.19,1.72-0.36,3.12-0.49,4.52c-0.2,2.03,1.67,2.92,3.09,4.03c0.6,0.47,1.07-0.12,1.26-0.52c0.57-1.23,2.52-2.3,1.31-3.77
		C38.72,254.59,37.14,253.15,34.85,251.91z M509.14,257.73c-0.11-2.07-0.37-3.24-0.83-3.23c-1.49,0.04-2.21,1.15-3.21,1.86
		c-0.54,0.38-1.02,0.83-1.5,1.28c-0.37,0.35-0.62,0.74-0.49,1.28c0.25,1.02,2.75,3.7,3.31,3.41c1.53-0.79,2.37-2.08,2.71-3.58
		C509.2,258.42,509.14,258.07,509.14,257.73z"/>
	<path class="st1" d="M244.61,67.27c-0.14-4.35,0.03-8.64,2.04-12.76c2.47-5.09,7.36-7.65,13.03-9.32c2.2-0.65,3.41-1.62,3.84-3.6
		c1.61-7.37,4.11-14.52,8.75-20.93c10.22-14.12,25.01-21.27,44.49-20.63c9.43,0.31,17.68,3.72,25.32,8.28
		c2.46,1.46,4.83,3.04,7.6,4.08c5.46,2.05,12.32,1.08,16.49-2.58c5.8-5.09,12.77-7.9,21.04-8.06c6.66-0.13,12.68,1.85,18.33,4.75
		c6.82,3.5,12.73,7.93,18.12,12.91c3.94,3.63,8.38,6.2,14.58,5.01c3.35-0.64,6.17-2.1,8.42-4.26c2.52-2.42,4.82-5.01,7.27-7.47
		c6.99-7.02,15.87-11.05,26.62-11.09c12.98-0.05,23.72,4.17,30.55,14.11c9.11,13.26,3.93,33.07-16.98,38.39
		c-11.77,2.99-22.28,0.69-31.33-6.47c-1.96-1.55-3.85-3.2-6.29-4.26c-4.83-2.12-10.36-0.67-13.03,3.37
		c-1.22,1.85-1.95,3.85-2.88,5.79c-4.12,8.52-14.77,10.09-21.95,8.21c-3.42-0.9-6.88-1.55-10.48-0.91
		c-3.08,0.55-5.51,1.88-7.06,4.28c-4.35,6.73-10.14,11.98-19.38,13.43c-7.23,1.13-13.94-0.16-20.6-2.89
		c-4.36-1.78-8.12-4.4-12.6-5.94c-4.01-1.38-8.11-1.49-12.33-1.1c-4.27,0.39-8.42,1.38-12.23,2.87c-2.91,1.14-5.57,2.92-8.31,4.45
		c-8.88,4.93-17.92,9.64-26.5,14.96c-1.79,1.11-3.5,2.32-5.32,3.39c-1.25,0.74-2.66,1.39-4.17,0.52c-1.51-0.88-1.34-2.25-1.01-3.52
		c2.15-8.13,4.34-16.25,6.54-24.37c0.59-2.18,1.38-4.32,1.34-6.59c-0.04-2.45-1.63-4.19-4.45-4.9c-2.51-0.63-4.91,0.06-6.22,2.23
		c-3.6,5.95-6.99,12-10.51,17.99c-3.13,5.32-6.25,10.64-9.53,15.89c-1.08,1.72-2.56,3.6-5.29,3.06c-2.74-0.54-3.68-2.63-3.98-4.82
		C245.53,81.63,244.71,74.47,244.61,67.27z"/>
	<path class="st1" d="M227.06,323.88c1.9-1.63,4.3-1.66,6.8-2.04c4.27-0.66,8.61-1.04,12.85-2.05c5.21-1.23,10.64-1.8,15.97-2.64
		c6.08-0.97,12.17-1.94,18.26-2.88c4.49-0.7,8.99-1.34,13.48-2.04c4.32-0.67,8.62-1.5,12.97-2.02c4.28-0.52,8.52-1.21,12.72-2.04
		c6.09-1.21,12.41-1.58,18.2-3.87c1.3-0.51,2.14-1.21,2.23-2.37c0.1-1.27-0.7-2.15-2.07-2.69c-4.28-1.66-8.9-2.24-13.42-3.08
		c-7.93-1.46-15.89-2.89-23.9-3.95c-6.06-0.8-12.02-2.04-18.06-2.9c-5.7-0.82-11.42-1.8-17.1-2.89c-8.18-1.57-16.45-2.8-24.67-4.24
		c-6.03-1.05-11.95-2.5-17.77-4.18c-4.46-1.29-6.77-4.01-6.19-7.15c0.64-3.44,3.88-4.62,7.14-5.75c7.31-2.53,15.13-2.94,22.79-3.99
		c9.71-1.34,19.4-2.81,29.16-3.78c6.1-0.61,12.13-1.58,18.25-2.1c7.43-0.63,14.81-1.76,22.18-2.83c9.71-1.42,19.48-2.44,29.22-3.63
		c2.18-0.27,4.3-0.83,6.55-0.76c7.26,0.22,7.94,5.23,6.05,9.38c-0.68,1.48-2.47,1.69-3.94,1.93c-5.56,0.93-11.18,1.61-16.74,2.56
		c-6.03,1.03-12.14,1.58-18.16,2.69c-7.69,1.43-15.49,2.43-23.2,3.82c-3.66,0.66-7.43,1.07-10.9,2.47c-1.46,0.59-1.98,1.48-1.8,2.75
		c0.19,1.28,1.32,1.82,2.6,2.02c12.3,1.98,24.61,3.89,37.01,5.39c8.89,1.07,17.72,2.57,26.63,3.51c9.31,0.98,18.53,2.38,27.8,3.56
		c10.48,1.34,21.01,2.73,30.9,6.3c1.51,0.55,3,1.19,4.4,1.91c5.38,2.79,5.68,8.81-0.78,12.02c-4.73,2.35-9.92,3.71-15.05,5.17
		c-9.54,2.72-19.3,4.78-29.05,6.85c-4.71,1-9.45,2.02-14.32,2.33c-0.39,0.03-0.81,0-1.05,0.46c1.18,0.75,2.57,0.72,3.93,0.74
		c5.03,0.08,10.05,0.14,15.07,0.21c-0.76,0.56-1.67,0.26-2.49,0.26c-10.9-0.06-21.79-0.33-32.69-0.21
		c-33.09,0.39-66.18,0.03-99.27,0.19C234.1,324.36,230.55,324.53,227.06,323.88z"/>
	<path class="st1" d="M354.2,160.78c-4.62,1.35-8-0.34-11.43-2.92c-6.54-4.92-12.65-10.19-18.86-15.4c-1.53-1.28-2.93-3.16-5.82-2.8
		c-2.7,0.34-4.07,2.34-2.77,4.57c1.3,2.22,3.15,4.15,4.5,6.36c3.45,5.64,6.98,11.24,10.67,16.76c5.07,7.58,10.32,15.07,15.46,22.61
		c0.95,1.4,1.87,2.84,2.6,4.33c1.44,2.97-0.09,5.96-3.75,7.6c-3.06,1.37-7.15,0.62-9.01-1.95c-4.76-6.56-9.49-13.14-14.01-19.83
		c-3.03-4.48-6.34-8.81-9.32-13.31c-3.57-5.39-7.99-10.31-11.44-15.76c-1.14-1.8-2.13-3.77-4.07-5.19
		c-1.12-0.82-2.08-1.73-3.69-1.15c-1.72,0.62-3.02,1.68-2.87,3.38c0.21,2.49,0.66,4.97,1.03,7.45c0.9,5.97,1.87,11.92,2.69,17.9
		c0.42,3.04-2.07,5.55-5.79,6.07c-3.52,0.49-7.13-1.27-8.09-3.84c-3.03-8.12-5.43-16.39-8.31-24.55
		c-2.17-6.14-3.89-12.41-6.59-18.41c-0.78-1.73-1.94-2.96-4.3-2.82c-2.14,0.12-2.98,1.28-3.53,2.98c-2.34,7.22-4.82,14.4-7.26,21.6
		c-2.61,7.71-5.16,15.44-7.92,23.12c-0.69,1.93-1.93,3.75-3.14,5.51c-1.43,2.09-4.28,2.83-7.36,2.12c-2.91-0.67-5.11-2.97-5.03-5.43
		c0.13-3.62,1.62-7.01,2.47-10.51c1.74-7.08,3.95-14.07,5.87-21.12c1.17-4.31,2.4-8.65,3.91-12.91c0.75-2.11,2.41-4.51,0.76-7
		c-1.16-1.75-2.91-2.18-4.69-0.82c-2.53,1.94-4.59,4.27-6.57,6.6c-4.06,4.79-8.53,9.29-12.89,13.86c-2.37,2.49-4.55,5.15-7.46,7.19
		c-3.03,2.13-6.47,3.42-10.47,1.82c2.96-6.22,7.15-11.89,10.85-17.78c6.47-10.3,13.12-20.5,19.54-30.82
		c1.77-2.85,4.17-4.17,7.9-4.17c23.85,0,47.7-0.01,71.55-0.15c4.99-0.03,8.13,1.64,10.67,5.35c7.07,10.32,14.54,20.42,21.81,30.64
		c4.56,6.41,9.05,12.86,13.56,19.3C353.93,159.74,354.39,160.17,354.2,160.78z"/>
	<path class="st1" d="M177.25,186.82c2.43,3.97,5.06,7.82,7.88,11.6c2.94,3.95,5.26,8.25,8.17,12.22c2.13,2.9,4.05,5.89,6.13,8.82
		c3.06,4.3,5.87,8.73,8.82,13.09c1.69,2.51,3.49,4.96,5.12,7.5c2.5,3.92,0.6,7.56-4.31,8.66c-2.45,0.55-4.1-0.5-5.61-1.82
		c-3.23-2.83-4.99-6.51-7.51-9.75c-3.39-4.36-6.49-8.88-9.73-13.32c-3.27-4.48-6.38-9.06-9.54-13.61
		c-3.79-5.46-7.7-10.87-11.53-16.31c-1.42-2.02-2.85-4.04-4.13-6.12c-0.8-1.3-1.97-2.27-3.15-3.26c-1.18-0.99-2.53-1.01-3.93-0.43
		c-1.43,0.59-2.61,1.43-2.39,2.94c0.28,1.87,0.7,3.74,1.15,5.58c2.12,8.59,4.26,17.17,6.41,25.75c1.22,4.88,2.74,9.7,3.54,14.66
		c0.47,2.9-1.34,5.36-4.52,5.99c-3.89,0.77-7.61-0.79-8.66-3.56c-1.85-4.85-2.78-9.91-4.36-14.8c-1.7-5.26-3.06-10.59-4.74-15.85
		c-1.62-5.07-2.76-10.26-3.96-15.42c-0.3-1.29-0.78-2.49-1.35-3.66c-0.64-1.32-1.95-2.19-3.73-2.04c-1.81,0.16-2.97,1.16-3.53,2.61
		c-2.79,7.15-5.25,14.39-8.15,21.52c-2.29,5.61-4.11,11.35-6.24,17.01c-0.99,2.64-2.44,5.16-3.27,7.83
		c-0.69,2.21-1.19,4.46-2.23,6.59c-0.75,1.54-1.74,2.82-3.72,3.43c-2.64,0.81-4.86,0.39-7.03-1.09c-2.15-1.46-2-3.26-1.38-5.15
		c3.35-10.07,6.2-20.25,9.87-30.25c2.5-6.81,4.34-13.8,6.53-20.7c0.59-1.84,0.4-3.26-1.75-4.29c-2.68-1.29-3.9-0.66-5.52,0.91
		c-2.43,2.35-4.46,5.01-6.68,7.53c-2.58,2.93-5.29,5.79-7.75,8.79c-2.6,3.17-4.95,6.49-7.45,9.72c-1.95,2.52-3.64,5.28-6.04,7.44
		c-2.85,2.57-6.35,4.6-10.84,4.59c-1.19-1.45-0.61-2.86,0.19-4.22c8.77-14.78,18.14-29.29,27.26-43.91
		c1.41-2.27,2.85-4.52,4.29-6.78c1.27-2,3.31-2.8,5.88-2.8c16.83-0.01,33.66,0.06,50.49-0.1c4.81-0.04,8.04,1.41,10.35,5.07
		c3.76,5.95,7.86,11.74,11.79,17.61C176.79,185.57,177.51,186.04,177.25,186.82z"/>
	<path class="st1" d="M476.91,223.97c-5.98,2.08-10.73-0.24-15.36-3.13c-4.76-2.97-9.71-5.73-14.33-8.84
		c-2.57-1.73-4.92-3.7-7.84-5.04c-1.42-0.65-2.83-0.81-4.19,0.13c-1.45,1-1.21,2.3-0.71,3.53c0.53,1.31,1.03,2.6,2.14,3.76
		c0.67,0.69,1.17,1.78,1.34,2.9c0.41,2.64,2.47,4.79,3.33,7.31c1.27,3.72,3.8,7.06,4.28,11.02c0.29,2.34-0.83,3.93-3.07,4.97
		c-2.73,1.27-5.47,1.27-7.88-0.61c-0.92-0.72-1.77-1.57-2.37-2.49c-5.09-7.86-10.86-15.39-15.34-23.54
		c-0.03-0.06-0.06-0.13-0.11-0.18c-1.26-1.21-1.85-3.21-4.23-3.15c-2.44,0.06-3.04,2.01-3.78,3.48c-3.07,6.04-5.95,12.15-8.97,18.2
		c-0.68,1.36-1.5,2.72-2.57,3.87c-1.75,1.9-5.25,2.27-8.01,1.08c-2.26-0.98-3.55-3.62-2.82-6.14c1.12-3.86,2.4-7.69,3.56-11.54
		c0.81-2.67,1.55-5.36,2.29-8.04c0.47-1.72-0.17-3.2-2.01-3.91c-1.67-0.65-3.46-0.59-5.1,0.5c-4.09,2.73-8.06,5.58-11.76,8.7
		c-1.9,1.6-3.74,3.26-5.96,4.59c-1.71,1.02-2.48,2.86-4.31,3.91c-2.65,1.53-6.43,1.86-8.67,0.49c-2.34-1.43-3.03-5.08-0.75-7.3
		c3.39-3.3,5.11-7.39,7.89-10.96c3.47-4.47,6.92-9,9.68-13.8c1.16-2.01,3.35-3.63,3.53-6.05c3.91-1.96,8.12-1.95,12.53-1.91
		c18.39,0.17,36.78,0.23,55.17-0.04c5.88-0.09,9.55,1.74,12.52,5.95c6.43,9.13,13.25,18.05,19.85,27.1
		C476.04,220.34,477.64,221.84,476.91,223.97z"/>
	<path class="st1" d="M462.49,147.47c-0.95,0-1.91,0.08-2.84-0.01c-3.81-0.37-6.55,0.84-7.75,4.01c-2.39,6.3-6.95,11.16-12.84,15.31
		c-3.65,2.58-6.94,5.52-10.4,8.3c-1.27,1.02-2.75,1.91-4.44,1.11c-1.74-0.83-1.44-2.42-1.13-3.84c1.65-7.38,3.31-14.76,4.99-22.14
		c0.33-1.47,0.75-2.99,0.04-4.4c-0.8-1.6-2.28-2.56-4.44-2.54c-2.28,0.02-3.77,1.2-4.53,2.79c-4.11,8.69-8.86,17.12-13.76,25.5
		c-0.77,1.32-1.77,2.57-2.83,3.75c-1.7,1.9-4.81,1.54-5.9-0.69c-1.64-3.36-1.7-7.01-2.39-10.54c-0.95-4.88-1.97-9.75-2.16-14.71
		c-0.15-4.16,0.39-8.2,4.22-11.2c2.1-1.65,4.72-2.7,7.4-3.52c2.33-0.72,3.54-1.99,3.77-4.16c0.34-3.3,0.24-6.64,1.43-9.86
		c3.79-10.21,17.42-14.49,28.05-8.79c3.32,1.78,5.72,4.15,7.14,7.33c1.43,3.18,4.54,3.74,7.48,1.4c1.38-1.1,2.48-2.47,3.89-3.54
		c6.23-4.74,15.54-4.86,22.73-0.35c7.07,4.43,10,11.63,7.67,18.87c-2.12,6.59-9.27,11.3-18.2,11.91c-1.73,0.12-3.47,0.02-5.21,0.02
		C462.49,147.45,462.49,147.46,462.49,147.47z"/>
	<path class="st1" d="M109.88,128.76c-0.63-6.92,3.63-11.02,10.72-13.37c2.26-0.75,3.45-1.93,3.53-4.06
		c0.07-1.89,0.5-3.77,0.61-5.66c0.55-9.33,12.68-15.2,22.85-12.32c4.61,1.31,8.21,3.63,10.37,7.5c2.41,4.32,5.31,4.61,8.81,0.77
		c4.42-4.86,10.25-5.86,16.73-4.52c10.05,2.07,15.56,9.89,13.45,18.62c-1.44,5.96-6.56,10.04-13.55,11.35
		c-3.95,0.74-7.85,0.56-11.77,0.36c-2.79-0.14-4.47,0.98-5.63,2.97c-0.04,0.06-0.09,0.12-0.1,0.18
		c-1.84,7.53-8.68,11.66-14.91,16.21c-2.46,1.8-4.83,3.7-7.32,5.47c-1.12,0.8-2.33,1.82-4.01,1.06c-1.61-0.72-1.36-2.1-1.13-3.26
		c0.93-4.6,2.01-9.18,2.98-13.77c0.58-2.73,1.11-5.48,1.57-8.23c0.36-2.14-0.75-3.79-2.69-4.23c-2.33-0.53-4.01,0.16-5.15,2.18
		c-2.95,5.25-5.58,10.66-9.28,15.53c-2.23,2.94-2.45,6.52-4.93,9.33c-1.26,1.43-2.32,2.87-4.65,2.45c-2.22-0.4-2.6-2.06-3.05-3.72
		c-1.54-5.75-2.16-11.63-3.41-17.42C109.68,131.1,109.88,129.91,109.88,128.76z"/>
	<path class="st1" d="M5.85,324.13c0.39-0.35,0.89-0.19,1.33-0.19c40.28-0.01,80.57-0.02,120.85-0.01c0.52,0,1.11-0.2,1.56,0.2
		c-2.84,0.46-5.71,0.2-8.55,0.2c-37.84,0.02-75.69,0.01-113.53,0C6.97,324.32,6.35,324.52,5.85,324.13z"/>
	<path class="st1" d="M140.62,324.06c0.97-0.38,1.99-0.15,2.98-0.15c15.75-0.02,31.5-0.02,47.24-0.01c0.6,0,1.24-0.22,1.8,0.14
		c-0.26,0.54-0.8,0.25-1.18,0.25c-16.63,0.02-33.25,0.01-49.88,0C141.27,324.3,140.79,324.55,140.62,324.06z"/>
	<path class="st1" d="M209.39,324.06c2.65-0.26,5.3-0.24,7.94,0C214.68,324.51,212.04,324.46,209.39,324.06z"/>
	<path class="st2" d="M34.85,251.91c2.3,1.24,3.87,2.68,5.16,4.25c1.21,1.47-0.74,2.54-1.31,3.77c-0.19,0.4-0.66,0.99-1.26,0.52
		c-1.42-1.1-3.29-2-3.09-4.03C34.49,255.02,34.66,253.63,34.85,251.91z"/>
	<path class="st2" d="M509.14,257.73c0,0.34,0.06,0.68-0.01,1.01c-0.34,1.5-1.18,2.79-2.71,3.58c-0.57,0.29-3.07-2.39-3.31-3.41
		c-0.13-0.54,0.12-0.93,0.49-1.28c0.47-0.45,0.96-0.9,1.5-1.28c1.01-0.71,1.73-1.82,3.21-1.86
		C508.77,254.49,509.03,255.66,509.14,257.73z"/>
</g>
<g id="Слой_2" class="st3">
	<path class="st4" d="M150.68,118.96"/>
</g>
</svg>
